<svg xmlns="http://www.w3.org/2000/svg" width="1200" height="460" viewBox="0 0 1200 460" role="img" aria-label="Daily load pattern (kW)"><rect width="1200" height="460" fill="#ffffff"/><text x="90.00" y="26.00" font-family="system-ui, -apple-system, 'Segoe UI', Roboto, sans-serif" font-size="17" fill="#1a1a1a" text-anchor="start" font-weight="700">Daily load pattern (kW)</text><text x="90.00" y="45.00" font-family="system-ui, -apple-system, 'Segoe UI', Roboto, sans-serif" font-size="11.5" fill="#666666" text-anchor="start" font-weight="normal">All 24 hours · chronological · one household, 2006–2010</text><line x1="90.00" y1="390.00" x2="1070.00" y2="390.00" stroke="#e5e5e5" stroke-width="1"/><text x="82.00" y="394.00" font-family="system-ui, -apple-system, 'Segoe UI', Roboto, sans-serif" font-size="10.5" fill="#666666" text-anchor="end" font-weight="normal">0</text><line x1="90.00" y1="310.00" x2="1070.00" y2="310.00" stroke="#e5e5e5" stroke-width="1"/><text x="82.00" y="314.00" font-family="system-ui, -apple-system, 'Segoe UI', Roboto, sans-serif" font-size="10.5" fill="#666666" text-anchor="end" font-weight="normal">0.5</text><line x1="90.00" y1="230.00" x2="1070.00" y2="230.00" stroke="#e5e5e5" stroke-width="1"/><text x="82.00" y="234.00" font-family="system-ui, -apple-system, 'Segoe UI', Roboto, sans-serif" font-size="10.5" fill="#666666" text-anchor="end" font-weight="normal">1</text><line x1="90.00" y1="150.00" x2="1070.00" y2="150.00" stroke="#e5e5e5" stroke-width="1"/><text x="82.00" y="154.00" font-family="system-ui, -apple-system, 'Segoe UI', Roboto, sans-serif" font-size="10.5" fill="#666666" text-anchor="end" font-weight="normal">1.5</text><line x1="90.00" y1="70.00" x2="1070.00" y2="70.00" stroke="#e5e5e5" stroke-width="1"/><text x="82.00" y="74.00" font-family="system-ui, -apple-system, 'Segoe UI', Roboto, sans-serif" font-size="10.5" fill="#666666" text-anchor="end" font-weight="normal">2</text><polyline points="90.00,284.49 132.61,303.71 175.22,313.10 217.83,318.82 260.43,318.98 303.04,317.41 345.65,263.34 388.26,149.64 430.87,156.24 473.48,176.94 516.09,188.30 558.70,190.67 601.30,196.87 643.91,206.87 686.52,216.75 729.13,231.48 771.74,238.18 814.35,221.18 856.96,177.77 899.57,112.67 942.17,86.15 984.78,89.57 1027.39,163.98 1070.00,245.66" fill="none" stroke="#4C72B0" stroke-width="2.4" stroke-linejoin="round"/><circle cx="90.00" cy="284.49" r="2.60" fill="#4C72B0"/><circle cx="132.61" cy="303.71" r="2.60" fill="#4C72B0"/><circle cx="175.22" cy="313.10" r="2.60" fill="#4C72B0"/><circle cx="217.83" cy="318.82" r="2.60" fill="#4C72B0"/><circle cx="260.43" cy="318.98" r="2.60" fill="#4C72B0"/><circle cx="303.04" cy="317.41" r="2.60" fill="#4C72B0"/><circle cx="345.65" cy="263.34" r="2.60" fill="#4C72B0"/><circle cx="388.26" cy="149.64" r="2.60" fill="#4C72B0"/><circle cx="430.87" cy="156.24" r="2.60" fill="#4C72B0"/><circle cx="473.48" cy="176.94" r="2.60" fill="#4C72B0"/><circle cx="516.09" cy="188.30" r="2.60" fill="#4C72B0"/><circle cx="558.70" cy="190.67" r="2.60" fill="#4C72B0"/><circle cx="601.30" cy="196.87" r="2.60" fill="#4C72B0"/><circle cx="643.91" cy="206.87" r="2.60" fill="#4C72B0"/><circle cx="686.52" cy="216.75" r="2.60" fill="#4C72B0"/><circle cx="729.13" cy="231.48" r="2.60" fill="#4C72B0"/><circle cx="771.74" cy="238.18" r="2.60" fill="#4C72B0"/><circle cx="814.35" cy="221.18" r="2.60" fill="#4C72B0"/><circle cx="856.96" cy="177.77" r="2.60" fill="#4C72B0"/><circle cx="899.57" cy="112.67" r="2.60" fill="#4C72B0"/><circle cx="942.17" cy="86.15" r="2.60" fill="#4C72B0"/><circle cx="984.78" cy="89.57" r="2.60" fill="#4C72B0"/><circle cx="1027.39" cy="163.98" r="2.60" fill="#4C72B0"/><circle cx="1070.00" cy="245.66" r="2.60" fill="#4C72B0"/><line x1="1080.00" y1="74.00" x2="1102.00" y2="74.00" stroke="#4C72B0" stroke-width="3"/><text x="1108.00" y="78.00" font-family="system-ui, -apple-system, 'Segoe UI', Roboto, sans-serif" font-size="11" fill="#1a1a1a" text-anchor="start" font-weight="normal">mean_kW</text><text x="90.00" y="408.00" font-family="system-ui, -apple-system, 'Segoe UI', Roboto, sans-serif" font-size="10.5" fill="#666666" text-anchor="middle" font-weight="normal">h00</text><text x="175.22" y="408.00" font-family="system-ui, -apple-system, 'Segoe UI', Roboto, sans-serif" font-size="10.5" fill="#666666" text-anchor="middle" font-weight="normal">h02</text><text x="260.43" y="408.00" font-family="system-ui, -apple-system, 'Segoe UI', Roboto, sans-serif" font-size="10.5" fill="#666666" text-anchor="middle" font-weight="normal">h04</text><text x="303.04" y="408.00" font-family="system-ui, -apple-system, 'Segoe UI', Roboto, sans-serif" font-size="10.5" fill="#666666" text-anchor="middle" font-weight="normal">h05</text><text x="388.26" y="408.00" font-family="system-ui, -apple-system, 'Segoe UI', Roboto, sans-serif" font-size="10.5" fill="#666666" text-anchor="middle" font-weight="normal">h07</text><text x="473.48" y="408.00" font-family="system-ui, -apple-system, 'Segoe UI', Roboto, sans-serif" font-size="10.5" fill="#666666" text-anchor="middle" font-weight="normal">h09</text><text x="558.70" y="408.00" font-family="system-ui, -apple-system, 'Segoe UI', Roboto, sans-serif" font-size="10.5" fill="#666666" text-anchor="middle" font-weight="normal">h11</text><text x="601.30" y="408.00" font-family="system-ui, -apple-system, 'Segoe UI', Roboto, sans-serif" font-size="10.5" fill="#666666" text-anchor="middle" font-weight="normal">h12</text><text x="686.52" y="408.00" font-family="system-ui, -apple-system, 'Segoe UI', Roboto, sans-serif" font-size="10.5" fill="#666666" text-anchor="middle" font-weight="normal">h14</text><text x="771.74" y="408.00" font-family="system-ui, -apple-system, 'Segoe UI', Roboto, sans-serif" font-size="10.5" fill="#666666" text-anchor="middle" font-weight="normal">h16</text><text x="856.96" y="408.00" font-family="system-ui, -apple-system, 'Segoe UI', Roboto, sans-serif" font-size="10.5" fill="#666666" text-anchor="middle" font-weight="normal">h18</text><text x="899.57" y="408.00" font-family="system-ui, -apple-system, 'Segoe UI', Roboto, sans-serif" font-size="10.5" fill="#666666" text-anchor="middle" font-weight="normal">h19</text><text x="984.78" y="408.00" font-family="system-ui, -apple-system, 'Segoe UI', Roboto, sans-serif" font-size="10.5" fill="#666666" text-anchor="middle" font-weight="normal">h21</text><text x="1070.00" y="408.00" font-family="system-ui, -apple-system, 'Segoe UI', Roboto, sans-serif" font-size="10.5" fill="#666666" text-anchor="middle" font-weight="normal">h23</text><text x="600" y="450" font-family="system-ui, sans-serif" font-size="10" fill="#666666" text-anchor="middle">computed on pandas · full scan 2,075,259 rows · chart rendering is not GPU-accelerated</text></svg>